<svg xmlns="http://www.w3.org/2000/svg" width="1125" viewBox="0 0 1125 1125" height="1125" version="1.0"><defs><clipPath id="a"><path d="M 144 112 L 981 112 L 981 1013 L 144 1013 Z M 144 112"/></clipPath><clipPath id="b"><path d="M 980.117188 112.5 L 887.570312 1083.097656 L 144.6875 1012.265625 L 237.234375 41.667969 Z M 980.117188 112.5"/></clipPath><clipPath id="c"><path d="M 980.597656 112.546875 L 888.050781 1083.144531 L 144.421875 1012.242188 L 236.96875 41.644531 Z M 980.597656 112.546875"/></clipPath></defs><path fill="#FFF" d="M-112.5 -112.5H1237.5V1237.5H-112.5z"/><path fill="#FFF" d="M-112.5 -112.5H1237.5V1237.5H-112.5z"/><path fill="#FFDE59" d="M-112.5 -112.5H1237.5V1237.5H-112.5z"/><g clip-path="url(#a)"><g clip-path="url(#b)"><g clip-path="url(#c)"><path fill="#FFF" d="M 531.941406 598.183594 L 512.457031 800.582031 L 980.582031 112.691406 L 603.96875 441.34375 L 626.355469 218.632812 L 144.4375 1012.09375 Z M 531.941406 598.183594"/></g></g></g></svg>